<svg width="235" height="235" viewBox="0 0 235 235" fill="none" xmlns="http://www.w3.org/2000/svg">
<path d="M78.6996 210.686C77.2329 209.753 70.1663 204.819 62.8329 199.753C45.7663 187.486 44.8329 185.753 49.2329 170.553C54.5663 152.419 57.8996 144.553 61.3663 142.286C65.7663 139.353 100.3 139.219 105.766 142.019C109.766 144.019 113.233 150.819 118.7 166.819C122.433 177.886 122.966 184.953 120.166 188.953C116.966 193.353 90.2996 210.953 85.6329 211.619C83.3663 211.886 80.1663 211.486 78.6996 210.686Z" fill="#00B9E9"/>
<path d="M140.306 204.533C123.906 193.6 118.039 188.533 117.106 184.267C116.573 181.733 118.039 175.6 121.773 164.667C124.839 156 127.906 147.733 128.573 146.4C131.373 141.333 136.839 140 155.773 140C174.039 140 178.039 140.8 181.373 145.2C183.639 148 190.839 170 191.906 176.933C193.373 186.533 192.173 188.4 177.373 199.067C155.239 214.933 155.906 214.933 140.306 204.533Z" fill="#00B9E9"/>
<path d="M42.2054 136.067C27.0054 125.534 20.0721 119.267 19.1388 115.534C17.6721 109.934 28.2054 79.2671 33.1388 74.7338C37.0054 71.0005 37.1388 71.0005 56.8721 71.0005C82.3388 71.0005 81.6721 70.6005 89.0054 93.0005C91.9388 102.067 94.3388 111.134 94.3388 113C94.3388 117.267 88.0721 123.8 75.0054 133.134C57.6721 145.667 56.0721 145.8 42.2054 136.067Z" fill="#00B9E9"/>
<path d="M171.533 138.067C150.467 123.8 145 118.467 145 112.734C145 111 147.4 102.067 150.333 93.0005C157.667 70.6005 157 71.0005 182.467 71.0005C202.2 71.0005 202.333 71.0005 206.2 74.7338C211.133 79.2671 221.667 109.934 220.2 115.534C219.267 119.267 212.333 125.534 197.133 136.067C184.867 144.6 181.4 144.867 171.533 138.067Z" fill="#00B9E9"/>
<path d="M108.533 91.0671C87.4667 76.8005 82 71.4671 82 65.7338C82 64.0005 84.4 55.0671 87.3333 46.0005C94.6667 23.6005 94 24.0005 119.467 24.0005C139.2 24.0005 139.333 24.0005 143.2 27.7338C148.133 32.2671 158.667 62.9338 157.2 68.5338C156.267 72.2671 149.333 78.5338 134.133 89.0671C121.867 97.6005 118.4 97.8671 108.533 91.0671Z" fill="#00B9E9"/>
<path d="M73.6996 31.0156C72.2329 31.9489 65.1663 36.8822 57.8329 41.9489C40.7663 54.2156 39.8329 55.9489 44.2329 71.1489C49.5663 89.2822 52.8996 97.1489 56.3663 99.4156C60.7663 102.349 95.2996 102.482 100.766 99.6823C104.766 97.6823 108.233 90.8823 113.7 74.8823C117.433 63.8156 117.966 56.7489 115.166 52.7489C111.966 48.3489 85.2996 30.7489 80.6329 30.0823C78.3663 29.8156 75.1663 30.2156 73.6996 31.0156Z" fill="#0A1C3A"/>
<path d="M174.073 37.2241C190.473 48.1574 196.34 53.2241 197.273 57.4908C197.806 60.0241 196.34 66.1574 192.606 77.0908C189.54 85.7574 186.473 94.0241 185.806 95.3574C183.006 100.424 177.54 101.757 158.606 101.757C140.34 101.757 136.34 100.957 133.006 96.5574C130.74 93.7574 123.54 71.7574 122.473 64.8241C121.006 55.2241 122.206 53.3574 137.006 42.6908C159.14 26.8241 158.473 26.8241 174.073 37.2241Z" fill="#0A1C3A"/>
<path d="M42.5333 110.933C27.3333 121.467 20.4 127.733 19.4666 131.467C18 137.067 28.5333 167.733 33.4666 172.267C37.3333 176 37.4666 176 57.2 176C82.6666 176 82 176.4 89.3333 154C92.2666 144.933 94.6666 135.867 94.6666 134C94.6666 129.733 88.4 123.2 75.3333 113.867C58 101.333 56.4 101.2 42.5333 110.933Z" fill="#0A1C3A"/>
<path d="M194.139 108.933C215.205 123.2 220.672 128.533 220.672 134.267C220.672 136 218.272 144.933 215.339 154C208.005 176.4 208.672 176 183.205 176C163.472 176 163.339 176 159.472 172.267C154.539 167.733 144.005 137.067 145.472 131.467C146.405 127.733 153.339 121.467 168.539 110.933C180.805 102.4 184.272 102.133 194.139 108.933Z" fill="#0A1C3A"/>
<path d="M130.806 153.781C151.872 168.048 157.339 173.381 157.339 179.115C157.339 180.848 154.939 189.781 152.006 198.848C144.672 221.248 145.339 220.848 119.872 220.848C100.139 220.848 100.006 220.848 96.1389 217.115C91.2055 212.581 80.6722 181.915 82.1389 176.315C83.0722 172.581 90.0055 166.315 105.206 155.781C117.472 147.248 120.939 146.981 130.806 153.781Z" fill="#0A1C3A"/>
</svg>
